<?xml version="1.0" encoding="UTF-8" standalone="no"?>
<svg
   xmlns:dc="http://purl.org/dc/elements/1.1/"
   xmlns:cc="http://creativecommons.org/ns#"
   xmlns:rdf="http://www.w3.org/1999/02/22-rdf-syntax-ns#"
   xmlns:svg="http://www.w3.org/2000/svg"
   xmlns="http://www.w3.org/2000/svg"
   version="1.1"
   id="Capa_1"
   x="0px"
   y="0px"
   viewBox="0 0 512 512"
   style="enable-background:new 0 0 512 512;"
   xml:space="preserve"><metadata
     id="metadata4830"><rdf:RDF><cc:Work
         rdf:about=""><dc:format>image/svg+xml</dc:format><dc:type
           rdf:resource="http://purl.org/dc/dcmitype/StillImage" /><dc:title></dc:title></cc:Work></rdf:RDF></metadata><defs
     id="defs4828" /><path
     style="fill:#ffda44"
     d="M 223,348.99952 H 93 v -130 h 130 z"
     id="path4739"
	 class="package" /><rect
     x="158"
     y="219"
     style="fill:#ff9811"
     width="65"
     height="130"
     id="rect4741"
	 class="package" /><rect
     x="143"
     y="219"
     style="fill:#ff5023"
     width="30"
     height="64"
     id="rect4743" 
	 class="package" /><path
     style="fill:#c6c5ca"
     d="M 452,438.99952 H 60 c -33.084,0 -60,-26.916 -60,-60 0,-33.084 26.916,-60 60,-60 h 392 c 33.084,0 60,26.916 60,60 0,33.084 -26.916,60 -60,60 z"
     id="path4757" /><path
     style="fill:#787680"
     d="M 452,318.99952 H 256 v 120 h 196 c 33.084,0 60,-26.916 60,-60 0,-33.084 -26.916,-60 -60,-60 z"
     id="path4759" /><path
     style="fill:#d8d7da"
     d="M 456,511.99952 H 56 v -103 h 400 z"
     id="path4761" /><rect
     x="256"
     y="409"
     style="fill:#c6c5ca"
     width="200"
     height="103"
     id="rect4763" /><path
     id="path4765"
     d="M 452,438.99952 H 60 c -33.084,0 -60,-26.916 -60,-60 0,-33.084 26.916,-60 60,-60 h 392 c 33.084,0 60,26.916 60,60 0,33.084 -26.916,60 -60,60 z m -392,-90 c -16.542,0 -30,13.458 -30,30 0,16.542 13.458,30 30,30 h 392 c 16.542,0 30,-13.458 30,-30 0,-16.542 -13.458,-30 -30,-30 z"
     style="fill:#3e3d42" /><circle
     id="circle4767"
     r="15"
     cy="379"
     cx="256"
     style="fill:#3e3d42" /><circle
     id="circle4769"
     r="15"
     cy="379"
     cx="196"
     style="fill:#3e3d42" /><circle
     id="circle4771"
     r="15"
     cy="379"
     cx="136"
     style="fill:#3e3d42" /><circle
     id="circle4773"
     r="15"
     cy="379"
     cx="76"
     style="fill:#3e3d42" /><path
     id="path4779"
     d="M 452,318.99952 H 256 v 30 h 196 c 16.542,0 30,13.458 30,30 0,16.542 -13.458,30 -30,30 H 256 v 30 h 196 c 33.084,0 60,-26.916 60,-60 0,-33.084 -26.916,-60 -60,-60 z"
     style="fill:#2d2d30" /><circle
     id="circle4781"
     r="15"
     cy="379"
     cx="316"
     style="fill:#2d2d30" /><circle
     id="circle4783"
     r="15"
     cy="379"
     cx="376"
     style="fill:#2d2d30" /><circle
     id="circle4785"
     r="15"
     cy="379"
     cx="436"
     style="fill:#2d2d30" /><path
     id="path4787"
     d="m 256,363.99952 v 30 c 8.284,0 15,-6.716 15,-15 0,-8.284 -6.716,-15 -15,-15 z"
     style="fill:#2d2d30" /><rect
     x="158"
     y="219"
     style="fill:#cd2a00"
     width="15"
     height="64"
     id="rect4793" 
	 class="package" /></svg>