<?xml version="1.0" encoding="UTF-8" standalone="no"?>
<svg
   xmlns:dc="http://purl.org/dc/elements/1.1/"
   xmlns:cc="http://creativecommons.org/ns#"
   xmlns:rdf="http://www.w3.org/1999/02/22-rdf-syntax-ns#"
   xmlns:svg="http://www.w3.org/2000/svg"
   xmlns="http://www.w3.org/2000/svg"
   xml:space="preserve"
   style="enable-background:new 0 0 512 512;"
   viewBox="0 0 512 512"
   y="0px"
   x="0px"
   id="Capa_1"
   version="1.1"><metadata
     id="metadata331"><rdf:RDF><cc:Work
         rdf:about=""><dc:format>image/svg+xml</dc:format><dc:type
           rdf:resource="http://purl.org/dc/dcmitype/StillImage" /><dc:title></dc:title></cc:Work></rdf:RDF></metadata><defs
     id="defs329" /><path
     class="packageLeft"
     id="path240"
     d="M 223,348.9968 H 93 v -130 h 130 z"
     style="fill:#ffda44" /><rect
     class="packageLeft"
     id="rect242"
     height="130"
     width="65"
     style="fill:#ff9811"
     y="218.99698"
     x="158" /><rect
     class="packageLeft"
     id="rect244"
     height="64"
     width="30"
     style="fill:#ff5023"
     y="218.99698"
     x="143" /><path
     id="path258"
     d="M 452,438.9968 H 60 c -33.084,0 -60,-26.916 -60,-60 0,-33.084 26.916,-60 60,-60 h 392 c 33.084,0 60,26.916 60,60 0,33.084 -26.916,60 -60,60 z"
     style="fill:#c6c5ca" /><path
     id="path260"
     d="M 452,318.9968 H 256 v 120 h 196 c 33.084,0 60,-26.916 60,-60 0,-33.084 -26.916,-60 -60,-60 z"
     style="fill:#787680" /><path
     id="path262"
     d="M 456,511.9968 H 56 v -103 h 400 z"
     style="fill:#d8d7da" /><rect
     id="rect264"
     height="103"
     width="200"
     style="fill:#c6c5ca"
     y="408.99698"
     x="256" /><g
     transform="translate(0,21.496674)"
     id="g276"><path
       id="path266"
       d="M 452,417.5 H 60 c -33.084,0 -60,-26.916 -60,-60 0,-33.084 26.916,-60 60,-60 h 392 c 33.084,0 60,26.916 60,60 0,33.084 -26.916,60 -60,60 z m -392,-90 c -16.542,0 -30,13.458 -30,30 0,16.542 13.458,30 30,30 h 392 c 16.542,0 30,-13.458 30,-30 0,-16.542 -13.458,-30 -30,-30 z"
       style="fill:#3e3d42" /><circle
       id="circle268"
       r="15"
       cy="357.5"
       cx="256"
       style="fill:#3e3d42" /><circle
       id="circle270"
       r="15"
       cy="357.5"
       cx="196"
       style="fill:#3e3d42" /><circle
       id="circle272"
       r="15"
       cy="357.5"
       cx="136"
       style="fill:#3e3d42" /><circle
       id="circle274"
       r="15"
       cy="357.5"
       cx="76"
       style="fill:#3e3d42" /></g><path
     style="fill:#2d2d30"
     d="M 452,318.9968 H 256 v 30 h 196 c 16.542,0 30,13.458 30,30 0,16.542 -13.458,30 -30,30 H 256 v 30 h 196 c 33.084,0 60,-26.916 60,-60 0,-33.084 -26.916,-60 -60,-60 z"
     id="path280" /><circle
     style="fill:#2d2d30"
     cx="316"
     cy="378.99698"
     r="15"
     id="circle282" /><circle
     style="fill:#2d2d30"
     cx="376"
     cy="378.99698"
     r="15"
     id="circle284" /><circle
     style="fill:#2d2d30"
     cx="436"
     cy="378.99698"
     r="15"
     id="circle286" /><path
     style="fill:#2d2d30"
     d="m 256,363.9968 v 30 c 8.284,0 15,-6.716 15,-15 0,-8.284 -6.716,-15 -15,-15 z"
     id="path288" /><rect
     class="packageLeft"
     id="rect294"
     height="64"
     width="15"
     style="fill:#cd2a00"
     y="218.99698"
     x="158" /><g
     id="g422"
     transform="translate(213.41925,43.998758)" /><g
     id="g4249"><path
       id="path4390-2"
       d="m 231.61906,49.271324 0.008,-37.843138 69.06624,-0.0067 -0.0654,38.03038 z"
       style="fill:#ffa733;stroke-width:0.52824807" /><polygon
       id="polygon4374"
       points="438.018,52 405.296,109 438.018,166 482,166 482,141 512,141 512,196 420.648,196 370.704,109 420.648,22 512,22 512,77 482,77 482,52 "
       style="fill:#ff5023"
       transform="matrix(0,0.44589062,-0.47846891,0,408.71294,-46.533283)" /><path
       id="path4390"
       d="m 308.88767,46.246715 19.90814,-18.696832 27.37368,25.708151 -19.90814,18.696813 z"
       style="fill:#ff9128;fill-opacity:1;stroke-width:0.34105814" /><path
       id="path4392"
       d="M 341.42107,116.91817 V 73.525972 h 30.27751 v 43.392198 z"
       style="fill:#ee8700;stroke-width:0.35542601" /><path
       id="path4394"
       d="m 335.02873,126.47228 c 0,-11.06388 9.65885,-20.06508 21.5311,-20.06508 11.87225,0 21.5311,9.0012 21.5311,20.06508 0,11.06389 -9.65885,20.06507 -21.5311,20.06507 -11.87225,0 -21.5311,-9.00118 -21.5311,-20.06507 z"
       style="fill:#2d2d30;stroke-width:0.46189263" /><g
       transform="translate(-131.47651,29.566856)"
       id="g4497"><path
         style="fill:#ffda44;stroke-width:0.46189263"
         d="m 248.94916,59.614711 c 0,-10.1235 4.23063,-19.641484 11.91195,-26.799804 9.21436,-8.58786 22.34212,-12.48896 35.08996,-10.63093 l 37.31197,-34.771 33.83253,31.52893 -37.31148,34.771444 c 1.99426,11.8754 -2.19234,24.11332 -11.40765,32.70073 -7.68087,7.15877 -17.89427,11.10134 -28.75743,11.10134 -10.86315,0 -21.07655,-3.94257 -28.7579,-11.1009 -7.68132,-7.15832 -11.91195,-16.67631 -11.91195,-26.79981 z"
         id="path4384" /><path
         style="fill:#ff9811;stroke-width:0.46189263"
         d="m 330.04958,58.488929 c 0,-10.86316 -4.11935,-18.071356 -11.27767,-25.752716 -7.16769,-7.69186 -19.00006,-10.992666 -28.92114,-11.007496 v 75.839069 c 10.1235,0 22.6467,-4.76096 29.80502,-12.44228 7.15832,-7.681347 10.39379,-15.773427 10.39379,-26.636577 z"
         id="path4386" /><ellipse
         style="fill:#57565c;stroke-width:0.46189263"
         cx="59.614735"
         cy="-289.61899"
         id="circle4388"
         rx="6.6883593"
         ry="7.1770334"
         transform="rotate(90)" /><path
         style="fill:#3e3d42;stroke-width:0.46189263"
         d="m 294.69413,64.344281 c 1.40144,-1.30602 2.10192,-3.01778 2.10192,-4.72957 h -14.35406 c 0,1.71179 0.70047,3.42355 2.10238,4.72957 2.8024,2.61157 7.34689,2.61157 10.14976,0 z"
         id="path4404" /><path
         style="fill:#3e3d42;stroke-width:0.44579962"
         d="m 327.28887,0.57218651 c 0,-6.61240681 2.7006,-13.22438351 8.10226,-18.25867751 10.80377,-10.067728 28.38166,-10.067728 39.18497,0 5.23356,4.877215 8.11565,11.3613756 8.11565,18.25867751 0,6.89730189 -2.88209,13.38146249 -8.11565,18.25824649 v 0 0 c -5.2331,4.877216 -12.19102,7.563062 -19.59226,7.563062 -7.40124,0 -14.35915,-2.685846 -19.59271,-7.563062 -5.40166,-5.033863 -8.10226,-11.6462701 -8.10226,-18.25824649 z"
         id="path4396" /></g><path
       style="fill:#2d2d30;fill-opacity:1;stroke-width:0.3793914"
       d="m 283.1951,30.163044 c 0,-5.627394 2.29831,-11.254423 6.89531,-15.538788 9.19439,-8.567996 24.15381,-8.567996 33.34781,0 4.45395,4.150685 6.9067,9.668937 6.9067,15.538788 0,5.86985 -2.45275,11.388103 -6.9067,15.538421 v 0 0 c -4.45355,4.150683 -10.37499,6.436434 -16.67371,6.436434 -6.29872,0 -12.22015,-2.285751 -16.6741,-6.436434 -4.597,-4.283999 -6.89531,-9.911393 -6.89531,-15.538421 z"
       id="path4396-7" /><path
       style="fill:#3e3d42;stroke-width:0.3793914"
       d="m 332.98214,72.431876 c 0,-5.627394 2.29831,-11.254423 6.89531,-15.538788 9.19439,-8.567996 24.15381,-8.567996 33.34781,0 4.45395,4.150685 6.9067,9.668937 6.9067,15.538788 0,5.86985 -2.45275,11.388103 -6.9067,15.538424 v 0 0 c -4.45355,4.15068 -10.37499,6.43643 -16.67371,6.43643 -6.29872,0 -12.22015,-2.28575 -16.6741,-6.43643 -4.597,-4.284002 -6.89531,-9.911396 -6.89531,-15.538424 z"
       id="path4396-7-9" /></g><path
     class="packageRight"
     id="path240-6"
     d="m 421.24557,277.54825 h -130 v -99.99997 h 130 z"
     style="fill:#ffda44;stroke-width:0.87705785" /><rect
     class="packageRight"
     id="rect242-5"
     height="99.999969"
     width="65"
     style="fill:#ff9811;stroke-width:0.87705785"
     y="177.54836"
     x="356.24557" /><rect
     class="packageRight"
     id="rect244-7"
     height="64"
     width="30"
     style="fill:#ff5023"
     y="177.63306"
     x="341.24557" /><rect
     class="packageRight"
     id="rect294-6"
     height="64"
     width="15"
     style="fill:#cd2a00"
     y="177.26013"
     x="356.24557" /></svg>