<?xml version="1.0" encoding="UTF-8" standalone="no"?>
<svg
   xmlns:dc="http://purl.org/dc/elements/1.1/"
   xmlns:cc="http://creativecommons.org/ns#"
   xmlns:rdf="http://www.w3.org/1999/02/22-rdf-syntax-ns#"
   xmlns:svg="http://www.w3.org/2000/svg"
   xmlns="http://www.w3.org/2000/svg"
   xml:space="preserve"
   style="enable-background:new 0 0 512 512;"
   viewBox="0 0 512 512"
   y="0px"
   x="0px"
   id="Capa_1"
   version="1.1"><metadata
     id="metadata67"><rdf:RDF><cc:Work
         rdf:about=""><dc:format>image/svg+xml</dc:format><dc:type
           rdf:resource="http://purl.org/dc/dcmitype/StillImage" /><dc:title></dc:title></cc:Work></rdf:RDF></metadata><defs
     id="defs65" /><path
     id="path2"
	 class="packageBottom" 
     d="M300,472H110V282h190V472z"
     style="fill:#A0815C;" /><path
     id="path4"
	 class="packageBottom" 
     d="M245,389.155l-80-32V282h80V389.155z"
     style="fill:#FFEB99;" /><path
     id="path6"
	 class="packageBottom" 
     d="M300,472h-44V282h44V472z"
     style="fill:#6A563D;" /><path
     id="path8"
	 class="packageTop" 
     d="M351,231H161V41h190V231z"
     style="fill:#FFA733;" /><rect
     id="rect10"
	 class="packageTop"
     height="190"
     width="95"
     style="fill:#EE8700;"
     y="41"
     x="256" /><g
     id="g16"><rect
       id="rect12"
       height="30"
       width="382"
       style="fill:#ACABB1;"
       y="201"
       x="65" /><rect
       id="rect14"
       height="30"
       width="382"
       style="fill:#ACABB1;"
       y="442"
       x="65" /></g><path
     id="path18"
	 class="packageTop" 
     d="M296,148.155l-80-32V41h80V148.155z"
     style="fill:#FFEB99;" /><polygon
     id="polygon20"
	 class="packageTop" 
     points="296,148.155 296,41 256,41 256,132.155 "
     style="fill:#FFDE55;" /><g
     id="g26"><rect
       id="rect22"
       height="30"
       width="191"
       style="fill:#898890;"
       y="201"
       x="256" /><rect
       id="rect24"
       height="30"
       width="191"
       style="fill:#898890;"
       y="442"
       x="256" /></g><path
     id="path28"
     d="M80,512H0V0h80V512z"
     style="fill:#3E3D42;" /><path
     id="path30"
     d="M512,512h-80V0h80V512z"
     style="fill:#2D2D30;" /><g
     id="g32" /><g
     id="g34" /><g
     id="g36" /><g
     id="g38" /><g
     id="g40" /><g
     id="g42" /><g
     id="g44" /><g
     id="g46" /><g
     id="g48" /><g
     id="g50" /><g
     id="g52" /><g
     id="g54" /><g
     id="g56" /><g
     id="g58" /><g
     id="g60" /></svg>