<?xml version="1.0" encoding="UTF-8" standalone="no"?>
<svg
   xmlns:dc="http://purl.org/dc/elements/1.1/"
   xmlns:cc="http://creativecommons.org/ns#"
   xmlns:rdf="http://www.w3.org/1999/02/22-rdf-syntax-ns#"
   xmlns:svg="http://www.w3.org/2000/svg"
   xmlns="http://www.w3.org/2000/svg"
   id="svg28"
   xml:space="preserve"
   viewBox="0 0 512 512"
   version="1.1"
   style="enable-background:new 0 0 512 512"><defs
     id="defs32" /><metadata
     id="metadata2"><rdf:RDF><cc:Work
         rdf:about=""><dc:format>image/svg+xml</dc:format><dc:type
           rdf:resource="http://purl.org/dc/dcmitype/StillImage" /><dc:title></dc:title></cc:Work></rdf:RDF></metadata><path
     id="path4"
     style="fill:#ff5023;stroke-width:1.59817278"
     d="m 215.45341,235.51936 c -6.91517,0 -12.52173,-5.6639 -12.52173,-12.64981 v -31.92571 h 25.04347 v 31.92571 c 0,6.98591 -5.60655,12.64981 -12.52174,12.64981 z" /><path
     id="path6"
     style="fill:#cb401c;stroke-width:1.59817278"
     d="M 233.73913,201.38496 H 197.1677 c -13.17207,0 -23.85093,-10.78808 -23.85093,-24.09488 0,-13.30679 10.67886,-24.09487 23.85093,-24.09487 h 36.57143 c 13.17208,0 23.85093,10.78808 23.85093,24.09487 0,13.3068 -10.67885,24.09488 -23.85093,24.09488 z" /><path
     id="path12"
     style="fill:#2d2d30;stroke-width:1.59817278"
     d="M 453.1518,113.03709 H 63.618385 c -13.172075,0 -23.850931,-10.78808 -23.850931,-24.094879 0,-13.306796 10.678856,-24.094874 23.850931,-24.094874 H 453.1518 c 13.17208,0 23.85094,10.788078 23.85094,24.094874 0,13.306799 -10.67886,24.094879 -23.85094,24.094879 z" /><path
     id="path14"
     style="fill:#3e3d42;stroke-width:1.59817278"
     d="M 255.20497,113.03709 H 63.602485 c -13.172074,0 -23.850932,-10.78808 -23.850932,-24.094879 0,-13.306796 10.678858,-24.094874 23.850932,-24.094874 H 255.20497 Z" /><path
     id="path16"
     style="fill:#2d2d30;stroke-width:1.59817278"
     d="M 453.1518,176.08534 H 63.618385 c -13.172075,0 -23.850931,-10.78808 -23.850931,-24.09488 0,-13.3068 10.678856,-24.09487 23.850931,-24.09487 H 453.1518 c 13.17208,0 23.85094,10.78807 23.85094,24.09487 0,13.3068 -10.67886,24.09488 -23.85094,24.09488 z" /><path
     id="path18"
     style="fill:#3e3d42;stroke-width:1.59817278"
     d="M 255.20497,176.08534 H 63.602485 c -13.172074,0 -23.850932,-10.78808 -23.850932,-24.09488 0,-13.3068 10.678858,-24.09487 23.850932,-24.09487 H 255.20497 Z" /><path
     id="path20"
     style="fill:#b7b7b7;stroke-width:1.59817278"
     d="m 473.02758,512 c -13.17207,0 -23.85093,-10.78807 -23.85093,-24.09487 V 24.094873 C 449.17665,10.788078 459.85551,0 473.02758,0 c 13.17207,0 23.85093,10.788078 23.85093,24.094873 V 487.90513 c 0,13.3068 -10.67886,24.09487 -23.85093,24.09487 z" /><path
     id="path22"
     style="fill:#b7b7b7;stroke-width:1.59817278"
     d="M 43.737838,512 C 30.565763,512 19.886907,501.21193 19.886907,487.90513 V 24.094873 C 19.886907,10.788078 30.565763,0 43.737838,0 56.909913,0 67.588771,10.788078 67.588771,24.094873 V 487.90513 C 67.588771,501.21193 56.909913,512 43.737838,512 Z" /><rect
     ry="19.371902"
     y="254.88699"
     x="177.11858"
     height="43.307411"
     width="157.15657"
     id="rect839"
     class="thirdPlane"
     style="fill:#a0815c;fill-opacity:1;stroke:#2d2d30;stroke-width:0;stroke-linejoin:round;stroke-miterlimit:4;stroke-dasharray:none;stroke-opacity:1" /><path
     id="rect854"
     class="thirdPlane"
     d="m 254.35558,254.88713 v 43.30759 h 60.74414 c 10.62337,0 19.17576,-8.63985 19.17576,-19.37189 v -4.56379 c 0,-10.73204 -8.55239,-19.37191 -19.17576,-19.37191 z"
     style="fill:#776045;fill-opacity:1;stroke:#2d2d30;stroke-width:0;stroke-linejoin:round;stroke-miterlimit:4;stroke-dasharray:none;stroke-opacity:1" /><rect
     style="fill:#a0815c;fill-opacity:1;stroke:#2d2d30;stroke-width:0;stroke-linejoin:round;stroke-miterlimit:4;stroke-dasharray:none;stroke-opacity:1"
     id="rect879"
     class="secondPlane"
     width="157.15657"
     height="43.307411"
     x="177.11858"
     y="295.65329"
     ry="19.371902" /><path
     style="fill:#776045;fill-opacity:1;stroke:#2d2d30;stroke-width:0;stroke-linejoin:round;stroke-miterlimit:4;stroke-dasharray:none;stroke-opacity:1"
     d="m 254.35558,295.65332 v 43.30759 h 60.74414 c 10.62337,0 19.17576,-8.63986 19.17576,-19.37189 v -4.56379 c 0,-10.73203 -8.55239,-19.37191 -19.17576,-19.37191 z"
     id="path881"
     class="secondPlane" /><rect
     ry="19.371902"
     y="336.06241"
     x="177.11858"
     height="43.307411"
     width="157.15657"
     id="rect883"
     class="firstPlane"
     style="fill:#a0815c;fill-opacity:1;stroke:#2d2d30;stroke-width:0;stroke-linejoin:round;stroke-miterlimit:4;stroke-dasharray:none;stroke-opacity:1" /><path
     id="path885"
     class="firstPlane"
     d="m 254.35558,336.06235 v 43.3076 h 60.74414 c 10.62337,0 19.17576,-8.63986 19.17576,-19.37189 v -4.5638 c 0,-10.73204 -8.55239,-19.37191 -19.17576,-19.37191 z"
     style="fill:#776045;fill-opacity:1;stroke:#2d2d30;stroke-width:0;stroke-linejoin:round;stroke-miterlimit:4;stroke-dasharray:none;stroke-opacity:1" /><path
     id="path24"
     style="fill:#ff9811;stroke-width:1.59817278"
     d="m 0,376.47437 v 62.64667 c 0,22.17853 17.797565,40.15812 39.751553,40.15812 H 472.24845 C 494.20244,479.27916 512,461.29957 512,439.12104 v -62.64667 z" /><path
     id="path26"
     style="fill:#ffda44;stroke-width:1.59817278"
     d="m 0,376.47437 v 62.64667 c 0,22.17853 17.797565,40.15812 39.751553,40.15812 H 254.40993 V 376.47437 Z" /></svg>