<?xml version="1.0" encoding="UTF-8" standalone="no"?>
<!-- Generator: Adobe Illustrator 19.0.0, SVG Export Plug-In . SVG Version: 6.00 Build 0)  -->
<svg
   xmlns:dc="http://purl.org/dc/elements/1.1/"
   xmlns:cc="http://creativecommons.org/ns#"
   xmlns:rdf="http://www.w3.org/1999/02/22-rdf-syntax-ns#"
   xmlns:svg="http://www.w3.org/2000/svg"
   xmlns="http://www.w3.org/2000/svg"
   xmlns:sodipodi="http://sodipodi.sourceforge.net/DTD/sodipodi-0.dtd"
   xmlns:inkscape="http://www.inkscape.org/namespaces/inkscape"
   version="1.1"
   id="Capa_1"
   x="0px"
   y="0px"
   viewBox="0 0 512 512"
   style="enable-background:new 0 0 512 512;"
   xml:space="preserve"
   sodipodi:docname="machine.svg"
   inkscape:version="0.92.2 (5c3e80d, 2017-08-06)"><metadata
     id="metadata45"><rdf:RDF><cc:Work
         rdf:about=""><dc:format>image/svg+xml</dc:format><dc:type
           rdf:resource="http://purl.org/dc/dcmitype/StillImage" /></cc:Work></rdf:RDF></metadata><defs
     id="defs43" /><sodipodi:namedview
     pagecolor="#ffffff"
     bordercolor="#666666"
     borderopacity="1"
     objecttolerance="10"
     gridtolerance="10"
     guidetolerance="10"
     inkscape:pageopacity="0"
     inkscape:pageshadow="2"
     inkscape:window-width="1366"
     inkscape:window-height="705"
     id="namedview41"
     showgrid="false"
     inkscape:zoom="1.3037281"
     inkscape:cx="151.19317"
     inkscape:cy="186.4595"
     inkscape:window-x="-8"
     inkscape:window-y="-8"
     inkscape:window-maximized="1"
     inkscape:current-layer="Capa_1" /><g
     id="g871"><path
       id="path2"
       d="M460,512H230V402h230V512z"
       style="fill:#C6C5CA;" /><path
       id="path4"
       d="M420,310H230V120h190V310z"
       style="fill:#A78966;" /><path
       id="path6"
       d="M285,237.155V120h80v85.155L285,237.155z"
       style="fill:#6A563D;" /><path
       id="path8"
       d="M436,432H230V280h206c41.906,0,76,34.093,76,76S477.906,432,436,432z"
       style="fill:#C6C5CA;" /><path
       id="path10"
       d="M436,432H230V280h206c41.906,0,76,34.093,76,76S477.906,432,436,432z M260,402h176  c25.364,0,46-20.636,46-46s-20.636-46-46-46H260V402z"
       style="fill:#2D2D30;" /><path
       id="path12"
       d="M260,512H0V0h260V512z"
       style="fill:#FFDA44;" /><rect
       id="rect14"
       height="512"
       width="130"
       style="fill:#FF9811;"
       x="130" /><g
       id="g20"><path
         id="path16"
         d="M422,396c-22.056,0-40-17.944-40-40s17.944-40,40-40s40,17.944,40,40S444.056,396,422,396z M422,346   c-5.514,0-10,4.486-10,10s4.486,10,10,10s10-4.486,10-10S427.514,346,422,346z"
         style="fill:#787680;" /><path
         id="path18"
         d="M322,396c-22.056,0-40-17.944-40-40s17.944-40,40-40s40,17.944,40,40S344.056,396,322,396z M322,346   c-5.514,0-10,4.486-10,10s4.486,10,10,10s10-4.486,10-10S327.514,346,322,346z"
         style="fill:#787680;" /></g><g
       id="g28"><rect
         id="rect22"
         height="30"
         width="80"
         style="fill:#57565C;"
         y="60"
         x="60" /><rect
         id="rect24"
         height="30"
         width="80"
         style="fill:#57565C;"
         y="110"
         x="60" /><rect
         id="rect26"
         height="30"
         width="80"
         style="fill:#57565C;"
         y="160"
         x="60" /></g><circle
       id="circle30"
       r="15"
       cy="75"
       cx="185"
       style="fill:#CD2A00;" /><g
       id="g38"><rect
         id="rect32"
         height="30"
         width="10"
         style="fill:#2D2D30;"
         y="60"
         x="130" /><rect
         id="rect34"
         height="30"
         width="10"
         style="fill:#2D2D30;"
         y="110"
         x="130" /><rect
         id="rect36"
         height="30"
         width="10"
         style="fill:#2D2D30;"
         y="160"
         x="130" /></g></g><g
     transform="matrix(0.44973991,0,0,0.44973991,-30.214089,220.73372)"
     id="g74"><g
       transform="matrix(1,0,0,0.98958728,0,3)"
       id="g3696"><path
       d="M 323.577 408.949 V 323.21899 H 254.64 L 253.93289 406.35969 C 229.95989 418.59369 214.201 444.10305 214.201 472.81205 214.201 513.56405 247.356 546.71805 288.109 546.71805 328.862 546.71805 362.017 513.56405 362.017 472.81205 362.017 444.10405 345.552 421.18405 321.577 408.94905 Z M 318.681 482.906 C 308.363 482.906 299.995 474.539 299.995 464.22 299.995 453.901 308.352 445.534 318.681 445.534 328.999 445.534 337.365 453.901 337.365 464.22 337.365 474.539 328.999 482.906 318.681 482.906 Z"
       id="path3680"
	   style="fill:#57565c;fill-opacity:1"
       inkscape:connector-curvature="0"
       sodipodi:nodetypes="scccssscssssss"><title
         id="title3855">cur_temp</title></path><path
         inkscape:connector-curvature="0"
         id="path3694"
         d="M 350.265,390.225 V 46.349 C 350.265,17.757 328.894,0 294.487,0 h -10.356 c -34.798,0 -58.179,18.628 -58.179,46.349 v 343.875 c -25.037,18.889 -41.25,48.879 -41.25,82.588 0,57.018 46.388,103.406 103.408,103.406 57.02,0 103.407,-46.389 103.407,-103.406 0,-33.708 -16.215,-63.699 -41.252,-82.587 z m -62.156,175.994 c -51.588,0 -93.408,-41.82 -93.408,-93.406 0,-27.719 12.077,-52.611 31.251,-69.719 3.019,-2.693 6.211,-5.193 9.562,-7.482 V 46.349 c 0,-27.157 26.182,-36.787 48.606,-36.787 h 10.355 c 10.844,0 46.225,2.649 46.225,36.787 v 349.264 c 3.352,2.287 6.545,4.789 9.562,7.482 19.174,17.105 31.252,42 31.252,69.717 0.003,51.588 -41.818,93.407 -93.405,93.407 z"
         style="fill:#57565c;fill-opacity:1" /></g><text
       id="text3819"
       y="351.77057"
       x="368.96317"
       style="font-style:normal;font-variant:normal;font-weight:normal;font-stretch:normal;font-size:83.01094055px;line-height:1.25;font-family:sans-serif;font-variant-ligatures:normal;font-variant-caps:normal;font-variant-numeric:normal;font-feature-settings:normal;text-align:start;letter-spacing:0px;word-spacing:0px;writing-mode:lr-tb;text-anchor:start;fill:#2d2d30;fill-opacity:1;stroke:none;"
       xml:space="preserve"><title
         id="title3853">min_label</title><tspan
         style="font-style:normal;font-variant:normal;font-weight:normal;font-stretch:normal;font-size:83.01094055px;font-family:sans-serif;font-variant-ligatures:normal;font-variant-caps:normal;font-variant-numeric:normal;font-feature-settings:normal;text-align:start;writing-mode:lr-tb;text-anchor:start;fill:#2d2d30;fill-opacity:1;"
         y="351.77057"
         x="368.96317"
         id="tspan3817"
         sodipodi:role="line">min</tspan></text>
<text
       id="text3819-3"
       y="74.243004"
       x="369.72324"
       style="font-style:normal;font-variant:normal;font-weight:normal;font-stretch:normal;font-size:83.01094055px;line-height:1.25;font-family:sans-serif;font-variant-ligatures:normal;font-variant-caps:normal;font-variant-numeric:normal;font-feature-settings:normal;text-align:start;letter-spacing:0px;word-spacing:0px;writing-mode:lr-tb;text-anchor:start;fill:#2d2d30;fill-opacity:1;stroke:none;"
       xml:space="preserve"><title
         id="title3851">max_label</title><tspan
         style="font-style:normal;font-variant:normal;font-weight:normal;font-stretch:normal;font-size:83.01094055px;font-family:sans-serif;font-variant-ligatures:normal;font-variant-caps:normal;font-variant-numeric:normal;font-feature-settings:normal;text-align:start;writing-mode:lr-tb;text-anchor:start;fill:#2d2d30;fill-opacity:1;"
         y="74.243004"
         x="369.72324"
         id="tspan3817-6"
         sodipodi:role="line">max</tspan></text>
<rect
       style="fill:none;stroke-width:0.86797136"
       y="47.718994"
       x="260.43237"
       height="1"
       width="55.043415"
       id="rect59"><title
       id="title63">max_temp</title></rect><rect
       ry="0.099974737"
       y="323.21899"
       x="254.64"
       height="1"
       width="66.860001"
       style="fill:none;stroke-width:0.86797136"
       id="rect69"><title
         id="title45">min_temp</title></rect><path
       inkscape:connector-curvature="0"
       id="path53"
       d="m 260.5019,48.204869 v -0.441942 h 27.48878 27.48877 v 0.441942 0.441942 H 287.99068 260.5019 Z"
       style="fill:none;stroke-width:0.17677669" /></g></svg>