<?xml version="1.0" encoding="UTF-8" standalone="no"?>
<svg
   xmlns:dc="http://purl.org/dc/elements/1.1/"
   xmlns:cc="http://creativecommons.org/ns#"
   xmlns:rdf="http://www.w3.org/1999/02/22-rdf-syntax-ns#"
   xmlns:svg="http://www.w3.org/2000/svg"
   xmlns="http://www.w3.org/2000/svg"
   xml:space="preserve"
   style="enable-background:new 0 0 512 512;"
   viewBox="0 0 512 512"
   y="0px"
   x="0px"
   id="Capa_1"
   version="1.1"><metadata
     id="metadata5061"><rdf:RDF><cc:Work
         rdf:about=""><dc:format>image/svg+xml</dc:format><dc:type
           rdf:resource="http://purl.org/dc/dcmitype/StillImage" /><dc:title></dc:title></cc:Work></rdf:RDF></metadata><defs
     id="defs5059"><filter
       height="1.0399484"
       y="-0.019974194"
       width="1.0601165"
       x="-0.030058252"
       id="filter872"
       style="color-interpolation-filters:sRGB"><feGaussianBlur
         id="feGaussianBlur874"
         stdDeviation="0.53750002" /></filter></defs><path
     id="path4970"
     d="M 491,511.83641 H 21 V 80 h 470 z"
     style="fill:#ffda44;stroke-width:1.11077368" /><rect
     id="rect4972"
     height="431.8364"
     width="235"
     style="fill:#ff9811;stroke-width:1.11077368"
     y="80"
     x="256" /><path
     id="path4974"
     d="M 399,512 H 109 V 263.55932 h 290 z"
     style="fill:#d8d7da;stroke-width:1.03931558" /><rect
     id="rect4976"
     height="248.44067"
     width="145"
     style="fill:#c6c5ca;stroke-width:1.03931558"
     y="263.55933"
     x="256.00003" /><path
     style="fill:#3e3d42;stroke-width:1.20043457"
     d="M 512,115.28343 H 0 V 0 h 512 z"
     id="path4978" /><path
     style="fill:#3e3d42"
     d="M 436,264 H 76 v -80 h 360 z"
     id="path4980" /><rect
     x="256"
     y="0"
     style="fill:#2d2d30;stroke-width:1.20043457"
     width="256"
     height="115.28343"
     id="rect4984" /><rect
     x="256"
     y="184"
     style="fill:#2d2d30"
     width="180"
     height="80"
     id="rect4986" /><g
     transform="translate(0,8)"
     id="g4994"><polygon
       id="polygon4990"
       points="286.213,176 243.787,176 163.787,256 206.213,256 "
       style="fill:#ffeb99" /><polygon
       id="polygon4992"
       points="217.213,176 174.787,176 94.787,256 137.213,256 "
       style="fill:#ffeb99" /></g><g
     transform="translate(0,8)"
     id="g5002"><polygon
       id="polygon4996"
       points="426.213,176 383.787,176 303.787,256 346.213,256 "
       style="fill:#ffde55" /><polygon
       id="polygon4998"
       points="356.213,176 313.787,176 233.787,256 276.213,256 "
       style="fill:#ffde55" /><polygon
       id="polygon5000"
       points="256,176 256,206.213 286.213,176 "
       style="fill:#ffde55" /></g><rect
     x="109"
     y="432"
     style="fill:#acabb1"
     width="290"
     height="30"
     id="rect5004" /><rect
     x="109"
     y="382"
     style="fill:#acabb1"
     width="290"
     height="30"
     id="rect5006" /><rect
     x="109"
     y="332"
     style="fill:#acabb1"
     width="290"
     height="30"
     id="rect5008" /><rect
     x="109"
     y="482"
     style="fill:#acabb1"
     width="290"
     height="30"
     id="rect5010" /><rect
     x="256.00864"
     y="432"
     style="fill:#898890"
     width="145"
     height="30"
     id="rect5014" /><rect
     x="256.00864"
     y="382"
     style="fill:#898890"
     width="145"
     height="30"
     id="rect5016" /><rect
     x="256.00864"
     y="332"
     style="fill:#898890"
     width="145"
     height="30"
     id="rect5018" /><rect
     x="256.00864"
     y="482"
     style="fill:#898890"
     width="145"
     height="30"
     id="rect5020" /><polygon
     transform="translate(0,8)"
     id="polygon5024"
     points="256,256 256,233.787 233.787,256 "
     style="fill:#ffeb99" /><rect
     x="108.99448"
     y="281.52002"
     style="fill:#acabb1"
     width="290"
     height="30"
     id="rect5008-5" /><rect
     x="256.00314"
     y="281.52002"
     style="fill:#898890"
     width="145"
     height="30"
     id="rect5018-6" /><text
     xml:space="preserve"
     style="font-style:normal;font-variant:normal;font-weight:normal;font-stretch:normal;font-size:85.33333333px;line-height:100%;font-family:sans-serif;font-variant-ligatures:normal;font-variant-caps:normal;font-variant-numeric:normal;font-feature-settings:right;text-align:end;letter-spacing:0px;word-spacing:0px;writing-mode:lr;text-anchor:end;fill:#ffffff;fill-opacity:1;stroke:none;stroke-width:1px;stroke-linecap:butt;stroke-linejoin:miter;stroke-opacity:1;filter:url(#filter872);"
     x="494.50845"
     y="88.949158"
     id="text855"><title
       id="title876">amount</title><tspan
       id="tspan866">0</tspan></text>
</svg>